<svg xmlns="http://www.w3.org/2000/svg" viewBox="0 0 64 64" width="64" height="64"><rect width="64" height="64" fill="#C7763B"/><path fill="#1F1812" d="M36.12746695486615 47.5013145016386Q37.84423549405139 47.5013145016386 39.450007047223124 47.113585083180396Q41.05577860039486 46.7258556647222 42.74110860066432 45.83817675183421L41.57898657768504 46.82034028325418L45.41820134445652 40.094075360981684H46.505784494392614L45.346408509558984 47.84334366986516Q43.3695571646506 48.62816491313107 40.87405021487153 49.06408245656554Q38.37854326509246 49.5 35.524843371099095 49.5Q31.50344752695977 49.5 28.194349907654264 48.41995674746153Q24.88525228834876 47.33991349492305 22.488133594213917 45.235063674542886Q20.091014900079074 43.13021385416271 18.79261520284323 40.071602485570764Q17.49421550560739 37.012991116978824 17.49421550560739 33.06141407462826Q17.49421550560739 28.059603770079917 19.742897200167647 24.314149826118637Q21.99157889472791 20.568695882157357 26.135955336272588 18.493638171274164Q30.280331777817267 16.41858046039097 35.96237930583156 16.41858046039097Q37.58328471029111 16.41858046039097 39.1277506244809 16.609054864609032Q40.672216538670696 16.799529268827094 42.68291231374966 17.26854654373434L41.21834840758339 17.59095921469441L44.16395315964847 15.5H44.66336936285228L46.3433485855685 26.788595390931736L45.30804652537298 26.99826208432242L40.91765202303009 19.444432790408936L42.160738751092126 20.763090484695642Q40.17088604655019 19.48873226959882 38.48397871303484 18.99182525156862Q36.79707137951949 18.494918233538424 34.92551374893101 18.494918233538424Q32.13385792073303 18.494918233538424 29.924286731112353 19.307964081766734Q27.714715541491678 20.121009929995044 26.173047065982615 21.746328874082778Q24.631378590473552 23.371647818170512 23.815985037181537 25.831829858047676Q23.000591483889522 28.292011897924837 23.000591483889522 31.595144026519574Q23.000591483889522 35.50311692794714 23.999074890782513 38.47105220651521Q24.997558297675504 41.43898748508328 26.78320616296537 43.44890660628249Q28.568854028255238 45.458825727481695 30.958574102239627 46.48007011456015Q33.348294176224016 47.5013145016386 36.12746695486615 47.5013145016386Z"/></svg>
